<svg xmlns="http://www.w3.org/2000/svg" version="1.1" xmlns:xlink="http://www.w3.org/1999/xlink" xmlns:svgjs="http://svgjs.dev/svgjs" width="1440" height="560" preserveAspectRatio="none" viewBox="0 0 1440 560">
    <g mask="url(&quot;#SvgjsMask1022&quot;)" fill="none">
        <path d="M582.65-81.64C448.26-53.14 391.38 294.63 184.25 296.84-22.88 299.05-107.65 148.15-214.15 145.64" stroke="rgba(188, 191, 193, 0.58)" stroke-width="2"></path>
        <path d="M1061.37-82.42C927.85-49.22 970.67 311.92 678.44 312.86 386.2 313.8 109.2 134.85-87.43 133.66" stroke="rgba(188, 191, 193, 0.58)" stroke-width="2"></path>
        <path d="M810.75-77.76C711.14-61.17 759.85 170.48 501.96 182.64 244.07 194.8 46.35 376.31-115.62 378.64" stroke="rgba(188, 191, 193, 0.58)" stroke-width="2"></path>
        <path d="M966.27-91.61C807.73-29.78 793.71 436.41 558.29 453.28 322.88 470.15 354.31 383.28 150.32 383.28-53.67 383.28-154.18 453.03-257.66 453.28" stroke="rgba(188, 191, 193, 0.58)" stroke-width="2"></path>
        <path d="M1033.79-32.64C859.62-5.32 771.29 411.63 488.38 414.39 205.47 417.15 84.09 270.04-57.03 268.79" stroke="rgba(188, 191, 193, 0.58)" stroke-width="2"></path>
    </g>
    <defs>
        <mask id="SvgjsMask1022">
            <rect width="1440" height="560" fill="#ffffff"></rect>
        </mask>
    </defs>
</svg>